<svg width="30" height="32" viewBox="0 0 30 32" fill="none" xmlns="http://www.w3.org/2000/svg">
<path d="M20.7921 31V25.4785C20.8451 24.7981 20.7541 24.1142 20.5249 23.4722C20.2958 22.8301 19.9339 22.2446 19.4632 21.7547C23.9023 21.2553 28.5676 19.5575 28.5676 11.7674C28.5672 9.7754 27.808 7.85981 26.447 6.41708C27.0914 4.67431 27.0459 2.74797 26.3198 1.03823C26.3198 1.03823 24.6516 0.538864 20.7921 3.14982C17.5519 2.26355 14.1363 2.26355 10.8961 3.14982C7.03659 0.538864 5.3684 1.03823 5.3684 1.03823C4.64228 2.74797 4.59671 4.67431 5.24117 6.41708C3.87003 7.87051 3.11001 9.80342 3.12058 11.8102C3.12058 19.5432 7.78586 21.241 12.2249 21.7975C11.7598 22.2825 11.4011 22.861 11.1722 23.4952C10.9432 24.1294 10.8491 24.8051 10.8961 25.4785V31M10.8961 26.7197C3.82744 28.8599 3.82744 23.1529 1 22.4395L10.8961 26.7197Z" stroke="#868889" stroke-width="2" stroke-linecap="round" stroke-linejoin="round"/>
</svg>
